# Blender v2.92.0 OBJ File: ''
# www.blender.org
mtllib low.mtl
o Icosphere
v -0.326034 -3.586331 -0.428628
v 5.491769 -1.706877 1.337809
v -2.548194 -1.706878 2.429553
v -7.517221 -1.706864 -0.428628
v -2.548194 -1.706878 -3.286809
v 5.491769 -1.706877 -2.195065
v 1.896125 1.334217 2.429553
v -6.143837 1.334216 1.337809
v -6.143837 1.334216 -2.195065
v 1.896125 1.334217 -3.286809
v 6.865153 1.334202 -0.428628
v -0.326034 3.213669 -0.428628
v -1.632177 -3.078556 1.251356
v 3.093560 -3.078555 0.609650
v 1.787431 -1.973839 2.289651
v 6.513175 -1.973833 -0.428628
v 3.093560 -3.078555 -1.466907
v -4.552901 -3.078546 -0.428628
v -5.859076 -1.973834 1.251361
v -1.632177 -3.078556 -2.108612
v -5.859076 -1.973834 -2.108618
v 1.787431 -1.973839 -3.146907
v 7.320471 -0.186331 0.609654
v 7.320471 -0.186331 -1.466911
v -0.326034 -0.186331 2.931371
v 4.399762 -0.186331 2.289668
v -7.972539 -0.186331 0.609654
v -5.051830 -0.186331 2.289668
v -5.051830 -0.186331 -3.146924
v -7.972539 -0.186331 -1.466911
v 4.399762 -0.186331 -3.146924
v -0.326034 -0.186331 -3.788628
v 5.207008 1.601172 1.251361
v -2.439499 1.601177 2.289651
v -7.165243 1.601171 -0.428628
v -2.439499 1.601177 -3.146907
v 5.207008 1.601172 -2.108618
v 0.980108 2.705894 1.251356
v 3.900833 2.705885 -0.428628
v -3.745628 2.705893 0.609650
v -3.745628 2.705893 -1.466907
v 0.980108 2.705894 -2.108612
vt 0.818181 0.000000
vt 0.772726 0.078731
vt 0.863635 0.078731
vt 0.727272 0.157461
vt 0.681818 0.078731
vt 0.636363 0.157461
vt 0.090909 0.000000
vt 0.045454 0.078731
vt 0.136363 0.078731
vt 0.272727 0.000000
vt 0.227273 0.078731
vt 0.318182 0.078731
vt 0.454545 0.000000
vt 0.409090 0.078731
vt 0.500000 0.078731
vt 0.681818 0.236191
vt 0.909090 0.157461
vt 0.818181 0.157461
vt 0.863635 0.236191
vt 0.181818 0.157461
vt 0.090909 0.157461
vt 0.136363 0.236191
vt 0.363636 0.157461
vt 0.272727 0.157461
vt 0.318182 0.236191
vt 0.545454 0.157461
vt 0.454545 0.157461
vt 0.500000 0.236191
vt 0.772726 0.236191
vt 0.954545 0.236191
vt 0.227273 0.236191
vt 0.409090 0.236191
vt 0.590909 0.236191
vt 0.818181 0.314921
vt 0.727272 0.314921
vt 0.772726 0.393651
vt 1.000000 0.314921
vt 0.909091 0.314921
vt 0.954545 0.393651
vt 0.272727 0.314921
vt 0.181818 0.314921
vt 0.227273 0.393651
vt 0.454545 0.314921
vt 0.363636 0.314921
vt 0.409090 0.393651
vt 0.636363 0.314921
vt 0.545454 0.314921
vt 0.590909 0.393651
vt 0.500000 0.393651
vt 0.545454 0.472382
vt 0.318182 0.393651
vt 0.363636 0.472382
vt 0.136363 0.393651
vt 0.181818 0.472382
vt 0.090909 0.314921
vt 0.863635 0.393651
vt 0.909090 0.472382
vt 0.681818 0.393651
vt 0.727272 0.472382
vt 0.045454 0.236191
vt 0.000000 0.157461
vt 0.590909 0.078731
vt 0.636363 0.000000
vn 0.0434 -0.9465 0.3198
vn 0.3826 -0.8549 0.3504
vn -0.1168 -0.9722 0.2030
vn -0.1168 -0.9722 -0.2030
vn 0.0434 -0.9465 -0.3198
vn 0.6670 -0.5758 0.4727
vn 0.0104 -0.3270 0.9450
vn -0.6338 -0.5566 0.5371
vn -0.2820 -0.3835 -0.8794
vn 0.2560 -0.3741 -0.8913
vn 0.4903 -0.1815 0.8524
vn -0.1334 -0.1293 0.9826
vn -0.9580 -0.2869 0.0000
vn -0.1334 -0.1293 -0.9826
vn 0.4903 -0.1815 -0.8524
vn 0.1852 0.7085 0.6809
vn -0.2193 0.7282 0.6493
vn -0.3826 0.8549 -0.3504
vn 0.0162 0.6577 -0.7531
vn 0.4054 0.8761 -0.2609
vn 0.1168 0.9722 -0.2030
vn 0.2315 0.8857 -0.4024
vn 0.1852 0.7085 -0.6809
vn -0.0434 0.9465 -0.3198
vn -0.0802 0.8031 -0.5904
vn -0.2193 0.7282 -0.6493
vn -0.1469 0.9892 0.0000
vn -0.3074 0.9516 0.0000
vn -0.3826 0.8549 0.3504
vn -0.0434 0.9465 0.3198
vn -0.0802 0.8031 0.5904
vn 0.0162 0.6577 0.7531
vn 0.1168 0.9722 0.2030
vn 0.2315 0.8857 0.4024
vn 0.4054 0.8761 0.2609
vn 0.6338 0.5566 -0.5371
vn 0.4803 0.2681 -0.8351
vn 0.2820 0.3835 -0.8794
vn -0.0104 0.3270 -0.9450
vn -0.1320 0.1930 -0.9723
vn -0.2560 0.3741 -0.8913
vn -0.6670 0.5758 -0.4727
vn -0.9114 0.4116 0.0000
vn -0.6670 0.5758 0.4727
vn -0.2560 0.3741 0.8913
vn -0.1320 0.1930 0.9723
vn -0.0104 0.3270 0.9450
vn 0.2820 0.3835 0.8794
vn 0.4803 0.2681 0.8351
vn 0.6338 0.5566 0.5371
vn 0.1334 0.1293 -0.9826
vn 0.1320 -0.1930 -0.9723
vn 0.0104 -0.3270 -0.9450
vn -0.4903 0.1815 -0.8524
vn -0.4803 -0.2681 -0.8351
vn -0.6338 -0.5566 -0.5371
vn -0.4903 0.1815 0.8524
vn -0.4803 -0.2681 0.8351
vn -0.2820 -0.3835 0.8794
vn 0.1334 0.1293 0.9826
vn 0.1320 -0.1930 0.9723
vn 0.2560 -0.3741 0.8913
vn 0.9580 0.2869 0.0000
vn 0.9114 -0.4116 0.0000
vn 0.6670 -0.5758 -0.4727
vn 0.2193 -0.7282 -0.6493
vn 0.0802 -0.8031 -0.5904
vn -0.0162 -0.6577 -0.7531
vn -0.1852 -0.7085 -0.6809
vn -0.2315 -0.8857 -0.4024
vn -0.4054 -0.8761 -0.2609
vn -0.4054 -0.8761 0.2609
vn -0.2315 -0.8857 0.4024
vn -0.1852 -0.7085 0.6809
vn 0.3826 -0.8549 -0.3504
vn 0.3074 -0.9516 0.0000
vn 0.1469 -0.9892 0.0000
vn -0.0162 -0.6577 0.7531
vn 0.0802 -0.8031 0.5904
vn 0.2193 -0.7282 0.6493
usemtl None
s off
f 1/1/1 14/2/1 13/3/1
f 2/4/2 14/5/2 16/6/2
f 1/7/3 13/8/3 18/9/3
f 1/10/4 18/11/4 20/12/4
f 1/13/5 20/14/5 17/15/5
f 2/4/6 16/6/6 23/16/6
f 3/17/7 15/18/7 25/19/7
f 4/20/8 19/21/8 27/22/8
f 5/23/9 21/24/9 29/25/9
f 6/26/10 22/27/10 31/28/10
f 2/4/11 23/16/11 26/29/11
f 3/17/12 25/19/12 28/30/12
f 4/20/13 27/22/13 30/31/13
f 5/23/14 29/25/14 32/32/14
f 6/26/15 31/28/15 24/33/15
f 7/34/16 33/35/16 38/36/16
f 8/37/17 34/38/17 40/39/17
f 9/40/18 35/41/18 41/42/18
f 10/43/19 36/44/19 42/45/19
f 11/46/20 37/47/20 39/48/20
f 39/48/21 42/49/21 12/50/21
f 39/48/22 37/47/22 42/49/22
f 37/47/23 10/43/23 42/49/23
f 42/45/24 41/51/24 12/52/24
f 42/45/25 36/44/25 41/51/25
f 36/44/26 9/40/26 41/51/26
f 41/42/27 40/53/27 12/54/27
f 41/42/28 35/41/28 40/53/28
f 35/41/29 8/55/29 40/53/29
f 40/39/30 38/56/30 12/57/30
f 40/39/31 34/38/31 38/56/31
f 34/38/32 7/34/32 38/56/32
f 38/36/33 39/58/33 12/59/33
f 38/36/34 33/35/34 39/58/34
f 33/35/35 11/46/35 39/58/35
f 24/33/36 37/47/36 11/46/36
f 24/33/37 31/28/37 37/47/37
f 31/28/38 10/43/38 37/47/38
f 32/32/39 36/44/39 10/43/39
f 32/32/40 29/25/40 36/44/40
f 29/25/41 9/40/41 36/44/41
f 30/31/42 35/41/42 9/40/42
f 30/31/43 27/22/43 35/41/43
f 27/22/44 8/55/44 35/41/44
f 28/30/45 34/38/45 8/37/45
f 28/30/46 25/19/46 34/38/46
f 25/19/47 7/34/47 34/38/47
f 26/29/48 33/35/48 7/34/48
f 26/29/49 23/16/49 33/35/49
f 23/16/50 11/46/50 33/35/50
f 31/28/51 32/32/51 10/43/51
f 31/28/52 22/27/52 32/32/52
f 22/27/53 5/23/53 32/32/53
f 29/25/54 30/31/54 9/40/54
f 29/25/55 21/24/55 30/31/55
f 21/24/56 4/20/56 30/31/56
f 27/22/57 28/60/57 8/55/57
f 27/22/58 19/21/58 28/60/58
f 19/21/59 3/61/59 28/60/59
f 25/19/60 26/29/60 7/34/60
f 25/19/61 15/18/61 26/29/61
f 15/18/62 2/4/62 26/29/62
f 23/16/63 24/33/63 11/46/63
f 23/16/64 16/6/64 24/33/64
f 16/6/65 6/26/65 24/33/65
f 17/15/66 22/27/66 6/26/66
f 17/15/67 20/14/67 22/27/67
f 20/14/68 5/23/68 22/27/68
f 20/12/69 21/24/69 5/23/69
f 20/12/70 18/11/70 21/24/70
f 18/11/71 4/20/71 21/24/71
f 18/9/72 19/21/72 4/20/72
f 18/9/73 13/8/73 19/21/73
f 13/8/74 3/61/74 19/21/74
f 16/6/75 17/62/75 6/26/75
f 16/6/76 14/5/76 17/62/76
f 14/5/77 1/63/77 17/62/77
f 13/3/78 15/18/78 3/17/78
f 13/3/79 14/2/79 15/18/79
f 14/2/80 2/4/80 15/18/80
