# Blender v2.92.0 OBJ File: ''
# www.blender.org
mtllib untitled.mtl
o Sphere_Sphere.001
v 0.249607 -1.045743 -0.041808
v 0.195245 0.369184 -1.084939
v 0.345371 -0.397205 -0.949516
v 0.073655 0.966717 -0.479516
v 1.139562 0.152062 -0.071899
v 0.008515 0.998068 0.370999
v 0.620746 -0.087956 0.975611
v -0.126525 -0.505273 0.951111
v -0.597401 0.583613 0.679407
v -0.870476 -0.555755 0.450119
v -0.993381 0.363851 -0.348717
v -0.532548 -0.722228 -0.589639
vt 0.690259 0.381378
vt 0.722276 0.609222
vt 0.507739 0.535618
vt 0.720900 0.835418
vt 0.345096 0.485100
vt 0.589862 0.125488
vt 0.132544 0.672405
vt 0.229729 0.340371
vt 0.998133 0.252781
vt 0.942703 0.606462
vt 0.874999 0.278386
vt 0.237247 0.863084
vt 0.235909 0.074785
vt 0.072200 0.339657
vt 0.000000 0.608727
vt 0.768340 0.111538
vt 0.985236 0.918502
vn 0.7338 0.0238 -0.6789
vn 0.6425 0.6060 -0.4690
vn 0.7793 -0.5726 0.2548
vn -0.1350 0.1845 0.9735
vn -0.9112 -0.3328 -0.2429
vn -0.2982 -0.2224 -0.9282
vn 0.7547 -0.5689 -0.3269
vn 0.6031 0.7975 0.0168
vn 0.6404 0.6162 0.4584
vn 0.3934 -0.7367 0.5500
vn 0.0788 0.5184 0.8515
vn -0.2118 -0.8898 0.4041
vn -0.5567 -0.0336 0.8300
vn -0.5522 0.8330 0.0346
vn -0.9323 0.1580 0.3253
vn -0.3936 -0.9191 0.0192
vn -0.4972 0.8648 -0.0700
vn -0.4228 0.6011 -0.6782
vn -0.5261 -0.0348 -0.8497
vn 0.0659 -0.8152 -0.5755
usemtl None
s off
f 3/1/1 2/2/1 5/3/1
f 4/4/2 5/3/2 2/2/2
f 5/3/3 7/5/3 1/6/3
f 9/7/4 8/8/4 7/5/4
f 10/9/5 11/10/5 12/11/5
f 2/2/6 3/1/6 12/11/6
f 1/6/7 3/1/7 5/3/7
f 4/4/8 6/12/8 5/3/8
f 5/3/9 6/12/9 7/5/9
f 1/6/10 7/5/10 8/8/10
f 6/12/11 9/7/11 7/5/11
f 1/13/12 8/8/12 10/14/12
f 8/8/13 9/7/13 10/14/13
f 9/7/14 6/12/14 11/15/14
f 10/14/15 9/7/15 11/15/15
f 10/9/16 12/11/16 1/16/16
f 6/17/17 4/4/17 11/10/17
f 11/10/18 4/4/18 2/2/18
f 11/10/19 2/2/19 12/11/19
f 12/11/20 3/1/20 1/6/20
